<mxfile host="app.diagrams.net" modified="2020-10-22T21:55:45.288Z" agent="5.0 (Windows NT 10.0; Win64; x64) AppleWebKit/537.36 (KHTML, like Gecko) Chrome/86.0.4240.75 Safari/537.36" etag="IKaE4ljyBdVEFdl7_VO1" version="13.8.0" type="github">
  <diagram id="h6DzrqEVBiyS2JVFvBzT" name="Page-1">
    <mxGraphModel dx="1422" dy="772" grid="1" gridSize="10" guides="1" tooltips="1" connect="1" arrows="1" fold="1" page="1" pageScale="1" pageWidth="850" pageHeight="1100" math="0" shadow="0">
      <root>
        <mxCell id="0" />
        <mxCell id="1" parent="0" />
        <mxCell id="dJRu49ielXEAjoLHYHaZ-1" value="Address" style="aspect=fixed;perimeter=ellipsePerimeter;html=1;align=center;shadow=0;dashed=0;fontColor=#4277BB;labelBackgroundColor=#ffffff;fontSize=12;spacingTop=3;image;image=img/lib/ibm/applications/microservice.svg;" vertex="1" parent="1">
          <mxGeometry x="510" y="60" width="150.7" height="110" as="geometry" />
        </mxCell>
        <mxCell id="dJRu49ielXEAjoLHYHaZ-2" value="Accounting" style="aspect=fixed;perimeter=ellipsePerimeter;html=1;align=center;shadow=0;dashed=0;fontColor=#4277BB;labelBackgroundColor=#ffffff;fontSize=12;spacingTop=3;image;image=img/lib/ibm/applications/microservice.svg;" vertex="1" parent="1">
          <mxGeometry x="516.85" y="240" width="137" height="100" as="geometry" />
        </mxCell>
        <mxCell id="dJRu49ielXEAjoLHYHaZ-3" value="Company" style="aspect=fixed;perimeter=ellipsePerimeter;html=1;align=center;shadow=0;dashed=0;fontColor=#4277BB;labelBackgroundColor=#ffffff;fontSize=12;spacingTop=3;image;image=img/lib/ibm/applications/microservice.svg;" vertex="1" parent="1">
          <mxGeometry x="200" y="90" width="205.5" height="150" as="geometry" />
        </mxCell>
        <mxCell id="dJRu49ielXEAjoLHYHaZ-4" value="Address Type" style="aspect=fixed;perimeter=ellipsePerimeter;html=1;align=center;shadow=0;dashed=0;fontColor=#4277BB;labelBackgroundColor=#ffffff;fontSize=12;spacingTop=3;image;image=img/lib/ibm/applications/microservice.svg;" vertex="1" parent="1">
          <mxGeometry x="860" y="90" width="82.2" height="60" as="geometry" />
        </mxCell>
        <mxCell id="dJRu49ielXEAjoLHYHaZ-5" value="Accounting Type" style="aspect=fixed;perimeter=ellipsePerimeter;html=1;align=center;shadow=0;dashed=0;fontColor=#4277BB;labelBackgroundColor=#ffffff;fontSize=12;spacingTop=3;image;image=img/lib/ibm/applications/microservice.svg;" vertex="1" parent="1">
          <mxGeometry x="860" y="280" width="82.2" height="60" as="geometry" />
        </mxCell>
        <mxCell id="dJRu49ielXEAjoLHYHaZ-6" value="Create Company" style="rounded=0;whiteSpace=wrap;html=1;" vertex="1" parent="1">
          <mxGeometry x="120" y="440" width="120" height="60" as="geometry" />
        </mxCell>
        <mxCell id="dJRu49ielXEAjoLHYHaZ-8" value="1 Post - Create Company" style="endArrow=classic;html=1;exitX=0.567;exitY=-0.017;exitDx=0;exitDy=0;exitPerimeter=0;entryX=0.263;entryY=1.007;entryDx=0;entryDy=0;entryPerimeter=0;" edge="1" parent="1" source="dJRu49ielXEAjoLHYHaZ-6" target="dJRu49ielXEAjoLHYHaZ-3">
          <mxGeometry x="-0.0334" y="10" width="50" height="50" relative="1" as="geometry">
            <mxPoint x="400" y="420" as="sourcePoint" />
            <mxPoint x="450" y="370" as="targetPoint" />
            <mxPoint x="-1" as="offset" />
          </mxGeometry>
        </mxCell>
        <mxCell id="dJRu49ielXEAjoLHYHaZ-9" value="2a. Create Address&amp;nbsp;" style="endArrow=classic;html=1;entryX=0;entryY=0.5;entryDx=0;entryDy=0;exitX=1;exitY=0;exitDx=0;exitDy=0;" edge="1" parent="1" source="dJRu49ielXEAjoLHYHaZ-3" target="dJRu49ielXEAjoLHYHaZ-1">
          <mxGeometry width="50" height="50" relative="1" as="geometry">
            <mxPoint x="340" y="150" as="sourcePoint" />
            <mxPoint x="390" y="100" as="targetPoint" />
          </mxGeometry>
        </mxCell>
        <mxCell id="dJRu49ielXEAjoLHYHaZ-10" value="2b. Create Accounting Info" style="endArrow=classic;html=1;" edge="1" parent="1" source="dJRu49ielXEAjoLHYHaZ-3" target="dJRu49ielXEAjoLHYHaZ-2">
          <mxGeometry width="50" height="50" relative="1" as="geometry">
            <mxPoint x="339.9985997845953" y="220.00308839367995" as="sourcePoint" />
            <mxPoint x="474.86" y="223.23000000000002" as="targetPoint" />
          </mxGeometry>
        </mxCell>
        <mxCell id="dJRu49ielXEAjoLHYHaZ-11" value="4a. Return Address UUID" style="endArrow=classic;html=1;exitX=0;exitY=0.75;exitDx=0;exitDy=0;" edge="1" parent="1" source="dJRu49ielXEAjoLHYHaZ-1">
          <mxGeometry x="-0.2222" y="11" width="50" height="50" relative="1" as="geometry">
            <mxPoint x="425" y="190" as="sourcePoint" />
            <mxPoint x="395" y="139" as="targetPoint" />
            <mxPoint as="offset" />
          </mxGeometry>
        </mxCell>
        <mxCell id="dJRu49ielXEAjoLHYHaZ-12" value="" style="endArrow=classic;html=1;exitX=0;exitY=0.75;exitDx=0;exitDy=0;entryX=0.657;entryY=1.013;entryDx=0;entryDy=0;entryPerimeter=0;" edge="1" parent="1" target="dJRu49ielXEAjoLHYHaZ-3">
          <mxGeometry width="50" height="50" relative="1" as="geometry">
            <mxPoint x="516.8521019318472" y="300.32804330453496" as="sourcePoint" />
            <mxPoint x="394.08" y="300" as="targetPoint" />
          </mxGeometry>
        </mxCell>
        <mxCell id="dJRu49ielXEAjoLHYHaZ-13" value="4b. Return Accounting UUID" style="edgeLabel;html=1;align=center;verticalAlign=middle;resizable=0;points=[];" vertex="1" connectable="0" parent="dJRu49ielXEAjoLHYHaZ-12">
          <mxGeometry x="-0.1854" y="3" relative="1" as="geometry">
            <mxPoint x="-11.67" as="offset" />
          </mxGeometry>
        </mxCell>
        <mxCell id="dJRu49ielXEAjoLHYHaZ-14" value="" style="shape=cylinder3;whiteSpace=wrap;html=1;boundedLbl=1;backgroundOutline=1;size=15;" vertex="1" parent="1">
          <mxGeometry x="730" y="135" width="46.15" height="60" as="geometry" />
        </mxCell>
        <mxCell id="dJRu49ielXEAjoLHYHaZ-15" value="" style="shape=cylinder3;whiteSpace=wrap;html=1;boundedLbl=1;backgroundOutline=1;size=15;" vertex="1" parent="1">
          <mxGeometry x="729.9999999999999" y="330" width="46.15" height="60" as="geometry" />
        </mxCell>
        <mxCell id="dJRu49ielXEAjoLHYHaZ-17" value="3a Insert to Address &lt;br&gt;Database" style="endArrow=classic;html=1;" edge="1" parent="1" source="dJRu49ielXEAjoLHYHaZ-1" target="dJRu49ielXEAjoLHYHaZ-14">
          <mxGeometry x="0.4765" y="34" width="50" height="50" relative="1" as="geometry">
            <mxPoint x="400" y="420" as="sourcePoint" />
            <mxPoint x="450" y="370" as="targetPoint" />
            <mxPoint as="offset" />
          </mxGeometry>
        </mxCell>
        <mxCell id="dJRu49ielXEAjoLHYHaZ-20" value="" style="endArrow=classic;html=1;entryX=0;entryY=0.5;entryDx=0;entryDy=0;entryPerimeter=0;exitX=0.75;exitY=1;exitDx=0;exitDy=0;" edge="1" parent="1" source="dJRu49ielXEAjoLHYHaZ-2" target="dJRu49ielXEAjoLHYHaZ-15">
          <mxGeometry width="50" height="50" relative="1" as="geometry">
            <mxPoint x="400" y="420" as="sourcePoint" />
            <mxPoint x="450" y="370" as="targetPoint" />
          </mxGeometry>
        </mxCell>
        <mxCell id="dJRu49ielXEAjoLHYHaZ-21" value="3b Insert to &lt;br&gt;Accounting Database" style="edgeLabel;html=1;align=center;verticalAlign=middle;resizable=0;points=[];" vertex="1" connectable="0" parent="dJRu49ielXEAjoLHYHaZ-20">
          <mxGeometry x="0.4556" y="-4" relative="1" as="geometry">
            <mxPoint x="2.0599999999999987" y="-37.019999999999996" as="offset" />
          </mxGeometry>
        </mxCell>
      </root>
    </mxGraphModel>
  </diagram>
</mxfile>
